<svg fill="none" height="24" viewBox="0 0 24 24" width="24" xmlns="http://www.w3.org/2000/svg" xmlns:xlink="http://www.w3.org/1999/xlink"><clipPath id="a"><path d="m0 0h24v24h-24z"/></clipPath><g clip-path="url(#a)" stroke="#838485" stroke-linecap="round" stroke-linejoin="round" stroke-width="2"><path d="m9 5h-2c-.53043 0-1.03914.21071-1.41421.58579-.37508.37507-.58579.88378-.58579 1.41421v12c0 .5304.21071 1.0391.58579 1.4142.37507.3751.88378.5858 1.41421.5858h10c.5304 0 1.0391-.2107 1.4142-.5858s.5858-.8838.5858-1.4142v-12c0-.53043-.2107-1.03914-.5858-1.41421-.3751-.37508-.8838-.58579-1.4142-.58579h-2"/><path d="m9 5c0-.53043.21071-1.03914.58579-1.41421.37507-.37508.88381-.58579 1.41421-.58579h2c.5304 0 1.0391.21071 1.4142.58579.3751.37507.5858.88378.5858 1.41421s-.2107 1.03914-.5858 1.41421c-.3751.37508-.8838.58579-1.4142.58579h-2c-.5304 0-1.03914-.21071-1.41421-.58579-.37508-.37507-.58579-.88378-.58579-1.41421z"/><path d="m9 12h6"/><path d="m9 16h6"/></g></svg>